<svg xmlns="http://www.w3.org/2000/svg"  viewBox="117 100 140 100" height="500" width="500" version="1.0">
    <defs>
        <clipPath id="a">
            <path d="M201.219 148.594h50.336v58.11h-50.336Zm0 0"/>
        </clipPath>
        <clipPath id="b">
            <path d="M201.375 203.7c14.25-18.825 24.227-34.65 28.875-40.65 2.25-2.85 3.074-4.05 5.398-6 3.227-2.777 10.125-7.874 12.676-8.175 1.125-.074 1.95.3 2.403.898.523.676.671 2.551.222 3.301-.3.676-1.5 1.125-2.176 1.2-.597.078-1.199-.149-1.648-.524-.45-.3-.898-.824-.977-1.352-.148-.75 0-1.949.454-2.546.449-.528 1.648-.977 2.324-.977.597 0 1.199.375 1.574.676.45.375.824.972.824 1.574.074.676-.074 1.648-.75 2.398-1.05 1.278-4.199 2.028-6.222 3.375-2.102 1.426-3.602 2.329-6.079 4.954-5.773 6.074-18.75 26.398-25.199 34.273-3.597 4.5-6.75 9.074-8.926 10.05-.972.45-2.023.376-2.472 0-.45-.448-.301-2.476-.301-2.476"/>
        </clipPath>
        <clipPath id="c">
            <path d="M224.617 170H228v3h-3.383Zm0 0"/>
        </clipPath>
        <clipPath id="d">
            <path d="M228 171.148c-1.426 2.25-2.773 1.801-3.074 1.352-.301-.45 0-1.875.449-2.176.375-.375 2.176.153 2.176.153"/>
        </clipPath>
        <clipPath id="e">
            <path d="M205 168.66h25.617v37.867H205Zm0 0"/>
        </clipPath>
        <clipPath id="f">
            <path d="M230.55 171.45c-5.85 12.448-8.698 15.527-10.198 18.073-.977 1.875-1.125 3.153-2.176 4.954-1.5 2.472-4.574 6.222-6.227 8.25-.972 1.273-1.5 2.398-2.472 2.921-.676.528-1.653.829-2.329.676-.75-.148-1.648-.898-1.875-1.574-.222-.824.227-2.55.903-3.074.523-.45 1.722-.602 2.398-.375.676.222 1.5 1.125 1.653 1.8.222.672-.079 1.797-.528 2.399-.449.523-1.574.977-2.25.898-.75-.074-1.722-.75-2.023-1.421-.375-.602-.375-1.5 0-2.477.676-1.727 3.824-4.125 5.699-6.676 2.25-3.148 4.125-7.648 6.375-10.949 2.102-3 4.875-5.477 6.602-8.25 1.5-2.324 1.949-6.074 3.296-7.05.75-.598 1.875-.825 2.403-.45.523.3.75 2.324.75 2.324"/>
        </clipPath>
        <clipPath id="g">
            <path d="M200.738 204.047h4.778v4.328h-4.778Zm0 0"/>
        </clipPath>
        <clipPath id="h">
            <path d="M203.398 208.125c-2.097-.375-2.625-1.426-2.546-2.023.148-.454.671-1.051 1.125-1.204.449-.148 1.273-.074 1.648.227.375.3.75.977.75 1.426 0 .523-.375 1.199-.824 1.5-.375.222-1.2.3-1.653.148-.449-.222-.972-.824-1.046-1.347 0-.676.898-2.25 1.648-2.551.75-.227 2.176.148 2.625.676.375.449 0 2.25 0 2.25"/>
        </clipPath>
        <clipPath id="i">
            <path d="M196.582 152.492h51.129v59.367h-51.129Zm0 0"/>
        </clipPath>
        <clipPath id="j">
            <path d="M198.977 206.398c10.574-6.671 11.023-9.148 12.074-9.75.676-.296 1.648-.148 2.176.153.523.222.898.824 1.046 1.273.227.528.153.977-.074 1.727-.449 1.426-2.55 4.574-4.05 6.375-1.274 1.5-2.774 3.074-4.047 3.75-.829.449-1.875.898-2.329.523-.597-.375-1.046-1.949-.671-3.3.898-3 9.222-11.172 11.472-12.598.75-.45 1.2-.602 1.801-.528.602 0 1.273.375 1.648.75.454.375.75 1.125.75 1.727.079.523 0 .977-.523 1.727-1.426 2.097-8.773 7.648-12.074 9.824-2.028 1.347-3.977 2.398-5.25 2.847-.676.301-1.125.454-1.653.375-.597-.074-1.273-.375-1.648-.824-.375-.375-.676-1.125-.676-1.648 0-.602.074-1.051.602-1.727 1.574-2.097 9.597-6.148 13.347-9.449 3.301-2.926 5.778-6 8.25-9.148 2.329-3 4.278-6.153 6.079-9.301 1.796-3.227 2.773-6.45 4.875-9.824 2.472-4.125 7.199-9.977 9.671-12.75 1.278-1.5 2.25-2.704 3.227-3.301.676-.375 1.2-.676 1.8-.602.75.074 1.802.676 2.177 1.278.375.671.523 1.875.148 2.546-.523.75-2.7.676-3.602 1.278-.75.523-.75 1.125-1.648 1.875-2.176 1.8-9.227 4.574-12.227 7.125-2.097 1.875-2.921 3.375-4.574 5.773-2.324 3.301-4.574 8.324-7.574 12.676-3.523 4.95-10.05 11.102-12.602 15.148-1.574 2.403-1.722 5.25-3 6.079-.671.523-1.796.523-2.472.222-.676-.222-1.278-.898-1.574-1.875-.528-1.8.074-5.55.75-8.625.824-3.75 2.398-8.398 4.347-12.074 1.727-3.375 4.051-6.523 6.528-9.227 2.398-2.625 4.796-4.648 7.875-6.824 3.75-2.699 10.648-6.972 13.347-7.574 1.051-.227 1.801-.3 2.403.148.671.454 1.421 1.5 1.199 2.704-.602 3.523-13.278 12.75-17.551 17.847-2.852 3.528-4.648 6.153-6.3 9.375-1.5 2.926-1.95 7.801-3.45 8.926-.676.602-1.727.602-2.324.45-.602-.15-1.125-.524-1.352-.973-.375-.602-.523-1.801-.3-2.477.226-.602 1.124-1.426 1.874-1.574.676-.153 1.801.148 2.329.676.523.449.898 1.574.75 2.25-.079.75-.75 1.722-1.426 1.949-.75.3-2.477-.153-3.074-.602-.454-.375-.528-.898-.602-1.574-.148-1.05.074-2.625.75-4.352 1.2-3.375 4.727-9.074 7.875-13.347 3.3-4.653 8.25-9.903 11.773-13.352 2.477-2.398 5.25-4.875 6.903-5.773.75-.375 1.199-.602 1.722-.528.602 0 1.352.301 1.727.75.45.676.75 2.102.523 2.926-.296.903-1.199 1.426-2.398 2.25-2.55 1.801-9.602 4.574-13.05 7.125-2.774 2.028-4.65 3.977-6.677 6.45-2.097 2.55-4.273 5.777-5.699 8.777-1.273 2.847-2.023 5.773-2.625 8.625-.597 2.847-.3 7.05-.898 8.398-.227.528-.45.676-.903.903-.449.296-1.199.523-1.796.449-.676-.153-1.653-.903-2.028-1.5-.3-.528-.3-1.125-.148-1.875.148-1.125.523-2.324 1.5-4.125 2.472-4.352 12.523-15 16.347-20.778 2.477-3.75 3.227-6.824 5.329-9.75 2.023-2.773 3.972-5.171 6.898-7.5 3.824-3 11.773-7.421 14.852-8.324 1.273-.375 2.773-.3 2.847-.148 0 .148-3.375 1.5-3.449 1.347-.074-.074 1.2-1.347 1.95-1.5.675-.148 1.874.153 2.323.75.602.602.903 1.801.602 3-.602 2.102-5.102 5.176-7.125 7.801a60.574 60.574 0 0 0-4.727 6.75c-1.648 2.926-2.921 6.375-4.796 9.676-2.028 3.602-4.579 7.574-7.204 10.95-2.472 3.226-4.875 6-8.023 8.85-3.602 3.302-9.602 7.802-12.676 9.376-1.648.824-3 1.426-3.898 1.199-.676-.148-1.125-.602-1.426-1.2-.3-.6-.45-1.573-.074-2.323.824-1.426 4.273-2.403 6.75-4.125 3.3-2.403 8.926-8.403 11.25-9.227.75-.3 1.273-.375 1.8-.148.672.296 1.5 1.125 1.723 1.722.227.602.074 1.2-.148 1.875-.301.903-.977 1.653-2.028 2.852-2.25 2.398-9.074 8.699-11.773 10.199-1.2.676-2.023 1.05-2.852.898-.824-.222-1.949-1.125-2.25-1.949-.296-.75-.222-1.949.375-2.699.75-.977 3.153-.676 4.653-1.8 2.25-1.65 4.648-7.723 6.375-8.552.824-.375 1.648-.148 2.176.153.523.222.898.824 1.046 1.273.227.528.153 1.051-.074 1.727-.375 1.125-1.949 3.449-3 4.5-.75.824-1.273 1.05-2.324 1.574-2.023 1.2-7.426 4.426-9.3 4.2-.973-.15-1.876-.973-1.95-1.575-.074-.602 1.352-2.102 1.352-2.102"/>
        </clipPath>
        <clipPath id="k">
            <path d="M146 118.05h39.574v90.821H146Zm0 0"/>
        </clipPath>
        <clipPath id="l">
            <path d="M179.398 204.3c.454-11.85 1.204-12.448 1.875-12.6.602-.075 1.579.3 2.102 1.198 1.273 1.954 1.5 11.403.523 13.801-.449 1.051-1.347 1.727-2.097 1.801-.75.074-1.875-.3-2.477-1.273-1.5-2.403.153-12-.597-17.176-.602-4.352-1.204-7.352-2.926-11.852-2.477-6.676-9-16.722-12.301-23.773-2.55-5.477-3.824-10.5-6.227-14.778-2.097-3.671-5.25-6.375-7.125-9.671-1.722-2.852-4.125-6.676-3.972-8.704.074-1.199.898-2.25 1.574-2.625.602-.296 1.352-.296 1.95-.074.527.153.823.45 1.5 1.125 2.027 2.324 6.448 10.051 10.5 16.801 5.925 9.977 19.277 32.25 21.226 37.5.449 1.352.597 1.875.449 2.625-.074.602-.45 1.2-.977 1.574-.597.375-1.722.528-2.398.375-.602-.148-.824-.449-1.426-1.199-2.176-2.773-7.722-17.102-11.023-23.398-2.324-4.426-6.977-8.926-6.375-11.102.3-1.2 2.625-2.398 3.523-2.176.977.227 1.278 1.727 2.102 3.375 1.949 4.2 6.074 16.574 7.949 22.801 1.273 4.2 1.426 6.676 2.7 10.727 1.8 5.625 6.448 16.199 7.425 19.722.375 1.278.676 1.801.45 2.7-.223.976-1.348 2.624-2.177 2.925-.671.227-1.574-.222-2.25-.597-.75-.375-1.199-.676-1.949-1.727-2.926-3.977-9.597-24.45-14.324-31.95-2.926-4.726-8.25-8.027-8.7-10.5-.226-1.124.302-2.323.973-2.777.602-.449 2.25-.523 2.926-.074.676.45.45 1.574 1.125 2.7 1.426 2.402 6.977 7.203 8.852 10.351 1.273 2.102 2.472 4.5 2.324 5.926-.148.898-.824 1.648-1.426 2.023-.523.301-1.273.301-1.8.153-.598-.153-1.5-.602-1.5-1.051 0-.75 3.75-3.227 4.351-2.926.45.3.3 2.324-.074 3-.301.523-.977.824-1.5.977-.602.148-1.051.074-1.875-.227-2.028-.898-7.653-5.398-9.903-7.875-1.5-1.648-2.472-3.3-3.074-4.8-.449-1.2-.972-2.473-.75-3.45.227-.898 1.125-1.95 1.875-2.25.676-.3 1.278-.3 2.25 0 2.324.75 8.176 4.95 10.801 7.125 1.727 1.426 3.375 2.926 3.977 4.125.296.676.449 1.2.296 1.8-.222.598-.824 1.575-1.5 1.802-.75.296-1.875.222-2.847-.528-2.852-2.324-7.95-16.05-10.051-22.05-1.426-3.899-1.574-7.348-2.55-10.047-.677-1.875-2.177-3.528-2.098-4.727 0-.602.375-1.125.75-1.5s1.046-.676 1.574-.602c.75.079 1.5.528 2.324 1.579 2.398 3.296 7.5 21.222 7.727 26.097.074 1.95-.079 3.45-.75 4.051-.602.45-1.801.45-2.477.074-.898-.449-1.426-1.574-2.176-3.3-1.949-4.126-4.648-17.848-6.449-23.098-.898-2.7-2.25-4.727-2.477-6.074-.074-.75-.074-1.204.153-1.653.222-.449.676-.972 1.125-1.125.523-.222 1.199-.3 1.648-.074.528.148.824.3 1.278.977 1.722 2.773 4.796 21.597 5.171 25.648.153 1.273.227 1.8 0 2.477-.296.671-.898 1.421-1.5 1.648-.597.227-1.648.074-2.171-.227-.454-.296-.602-.597-.977-1.421-1.426-3.227-7.05-22.426-5.773-25.727.375-1.05 1.574-1.727 2.097-1.5.903.227 1.125 2.7 1.801 4.95 1.273 4.5 3.45 18.152 5.023 20.925.454.898 1.278.898 1.352 1.426.148.523-.148 1.273-.45 1.8-.374.45-.976.899-1.573.973-.676.074-1.801-.222-2.329-.676-.449-.375-.824-1.046-.75-1.648 0-.75.903-2.324 1.653-2.625.676-.3 1.875-.074 2.398.3.528.302.903.825.977 1.348.148.676 0 1.801-.45 2.403-.453.523-1.5.972-2.25.972-.675-.074-1.726-.671-2.027-1.347-.375-.75-.148-2.477.45-3.074.453-.602 1.578-.903 2.328-.75.671.148 1.574.898 1.875 1.574.296.676.148 1.949-.301 2.55-.528.598-2.028 1.047-2.778.899-.597-.074-1.046-.523-1.5-1.05-.75-.9-1.347-2.098-2.097-4.126-1.727-4.722-5.778-20.324-5.7-24.375.075-1.426.297-2.176.899-2.847.602-.676 2.023-1.278 2.926-1.051 1.125.375 2.25 1.949 3.074 3.75 1.5 3.148 1.5 9.824 2.477 14.398.972 4.2 3.597 9.676 3.375 11.926-.153.977-.528 1.648-1.051 2.023-.528.301-1.574.454-2.176.227-.602-.227-.977-.676-1.5-1.648-1.727-3.528-5.625-23.852-4.727-27.375.227-.977.676-1.426 1.278-1.653.676-.3 1.875-.148 2.625.45 1.273 1.05 1.8 4.05 2.773 7.203 1.95 5.699 8.403 22.273 6.676 24.449-.602.824-2.324.824-3.375 0-3.074-2.25-8.176-22.125-8.023-25.95 0-1.05.296-1.652.75-2.101.523-.45 1.5-.75 2.171-.523 1.051.375 2.102 2.097 3 3.898 1.426 2.926 1.801 7.8 3.528 12.45 2.25 6.226 9.972 18 9.597 21.226-.148.972-.898 1.5-1.5 1.8-.671.297-1.347.223-2.324-.152-2.625-1.05-12.074-7.722-12.074-9.676 0-.824 1.426-1.875 2.102-1.722.898.148 1.273 2.625 2.546 4.125 2.028 2.25 8.102 5.472 9.227 7.199.45.75.45 1.273.375 1.8-.074.598-.375 1.274-.898 1.65-.528.374-1.653.675-2.329.527-.597-.153-1.5-.602-1.5-1.051 0-.75 3.676-3.227 4.278-2.926.449.3.375 2.324 0 3-.301.523-.977.898-1.574.977-.528.148-1.051.222-1.801-.227-2.551-1.574-11.926-14.55-12.375-18.074-.227-1.278.3-2.324.972-2.778.602-.449 1.875-.523 2.926-.074 1.95.75 4.875 4.653 6.528 6.676 1.199 1.5 1.722 2.176 2.699 4.125 2.176 4.05 5.847 14.398 8.25 19.8 1.648 3.75 3 7.126 4.5 9.45 1.05 1.648 3.148 3.523 3 3.824-.153.153-1.653-1.199-2.403-1.125-.824.074-1.421 2.028-2.25 1.875-2.171-.597-5.023-13.8-7.421-21.148-2.477-7.801-4.653-17.852-7.125-24.375-1.727-4.653-4.579-8.852-5.25-11.551-.375-1.352-.75-2.55-.227-3.227.602-.824 3-1.574 4.426-.972 2.55 1.125 5.097 8.176 7.125 12.222 1.875 3.676 2.926 7.278 4.648 10.875 1.875 3.676 5.028 8.477 6.153 11.102.523 1.352.972 2.25.972 3.148 0 .676-.222 1.278-.597 1.727-.454.523-1.5.977-2.25.977-.676-.079-1.204-.454-2.028-1.352-3.449-3.676-13.273-24.977-19.05-34.727-4.422-7.273-10.649-14.921-12.376-18.75-.671-1.5-1.199-2.398-.898-3.296.227-.903 1.352-1.954 2.176-2.176.676-.153 1.648.148 2.324.824 1.273 1.05 1.648 4.352 3.074 6.824 1.875 3.153 5.403 6.375 7.653 10.352 2.699 4.648 4.199 10.273 6.972 16.199 3.45 7.426 10.125 17.7 12.676 24.75 1.648 4.8 2.25 8.102 2.7 12.602.6 5.023.6 13.574.152 16.125-.153.824-.301 1.199-.676 1.648-.301.375-.977.75-1.5.75-.676.074-1.653-.3-2.102-.75-.449-.45-.523-.824-.676-1.648-.375-2.25-.449-10.653.375-12.75.375-.829.829-1.278 1.352-1.5a1.74 1.74 0 0 1 1.5 0c.602.296 1.125.972 1.426 2.023.597 2.102.449 9.148-.602 10.95-.523.902-1.5 1.425-2.097 1.35-.602-.073-1.579-1.874-1.579-1.874"/>
        </clipPath>
        <clipPath id="m">
            <path d="M183.125 204.77h6.71v11.007h-6.71Zm0 0"/>
        </clipPath>
        <clipPath id="n">
            <path d="M189.602 207.074c-.602 5.324-1.051 5.926-1.579 6-.671.153-2.023-.449-2.398-1.05-.45-.75-.45-2.7.074-3.223.375-.375 1.95-.45 2.403.074.671.676.148 4.05-.227 5.176-.227.523-.45.898-.824 1.125-.528.3-1.574.597-2.176.3-.602-.3-1.5-1.578-1.426-2.328.074-.75 1.125-1.875 1.801-2.023.676-.148 1.648.148 2.102.602.449.597.671 2.097.296 2.773-.375.602-1.796 1.2-2.472 1.05-.676-.073-1.352-.75-1.574-1.425-.454-.898-.227-2.324 0-3.602.296-1.421.75-3.972 1.722-4.574.903-.523 2.926-.074 3.676.528.602.523.824 1.574.824 2.472 0 1.125-.676 3.375-1.347 3.903-.528.375-1.352.296-1.875.148-.454-.148-.829-.602-.977-.977-.148-.296-.3-.898-.227-.972.153 0 1.051 1.8 1.204 1.722.222-.074-.977-2.847-.977-3.972a4.94 4.94 0 0 1 .3-2.176c.15-.523.302-.898.598-1.2.375-.3 1.204-.6 1.653-.374.597.222 1.426 2.023 1.426 2.023"/>
        </clipPath>
        <clipPath id="o">
            <path d="M185.75 208.559h6.672v6.03h-6.672Zm0 0"/>
        </clipPath>
        <clipPath id="p">
            <path d="M188.55 208.8c2.473 1.5 3.825 3.223 3.598 4.052-.074.671-1.199 1.273-2.023 1.5-.898.222-2.625 0-3.375-.528-.523-.375-.898-1.05-.898-1.648 0-.602.671-1.653 1.273-1.875.602-.227 1.875.148 2.324.597.375.375.528 1.278.375 1.801-.148.528-.824 1.2-1.347 1.352-.528.148-1.426 0-1.875-.375-.454-.301-.829-1.125-.75-1.727.148-.597 1.046-1.648 1.648-1.8.523-.149 1.426.152 1.8.601.376.375.677 1.2.524 1.8-.148.598-1.05 1.427-1.648 1.575-.45.148-1.051 0-1.426-.3-.375-.302-.824-1.126-.898-1.65 0-.448.222-.976.449-1.35.3-.302.824-.598 1.273-.677.528-.074 1.574.079 1.801.454.227.523-.3 2.25-.824 2.398-.45.227-1.875-.824-2.25-1.426-.375-.523-.45-1.273-.301-1.722.227-.454.824-.977 1.273-1.125.375-.153 1.278.074 1.278.074"/>
        </clipPath>
        <clipPath id="q">
            <path d="M176.527 137H203v49.285h-26.473Zm0 0"/>
        </clipPath>
        <clipPath id="r">
            <path d="M184.05 151.875c-1.5 5.773.075 6.898.825 8.7 1.05 2.402 2.176 5.698 3 9.073.898 4.125 2.25 11.403 2.023 13.801-.148.903-.296 1.352-.671 1.727-.375.449-.977.898-1.579.898-.824 0-2.097-.3-2.699-1.347-1.347-2.477.977-13.278 1.875-18.227.676-3.375 1.426-6.074 2.477-8.55.824-2.024 1.5-4.575 2.926-5.4 1.125-.6 3.449-.374 4.273.302.75.523.75 1.5.824 2.847.227 3.528-1.199 15.676-2.625 18.301-.523.898-1.199 1.273-1.8 1.352-.672.148-1.723-.227-2.172-.676-.454-.301-.602-.903-.75-1.574-.227-1.051-.153-2.329.296-4.278.903-4.574 5.778-19.875 8.102-22.426.676-.824 1.273-1.046 1.95-1.046.675 0 1.652.523 2.027 1.046.375.528.449 1.204.222 2.25-.75 3.375-9.3 17.403-12.222 19.801-.977.824-1.954 1.2-2.551.977-.676-.153-1.278-1.125-1.426-1.95-.148-1.203.676-2.703 1.5-4.726 1.727-4.125 7.5-14.773 9.227-17.625.597-1.05.75-1.8 1.347-1.95.528-.152 1.875.302 2.028.973.523 1.954-7.051 11.704-9.227 13.875-.824.829-1.426 1.426-2.102 1.426-.75.074-1.722-.449-2.25-1.05-.597-.75-.671-1.95-.671-3.524-.079-3.375 1.046-13.95 2.847-15.898.824-.75 2.176-.829 2.852-.528.597.301.972 1.2 1.05 2.25.149 2.25-2.476 7.801-3.152 11.324-.523 3 0 6.977-.75 8.551-.375.75-.824 1.278-1.347 1.426-.676.148-1.875-.074-2.329-.75-.898-1.2-.523-5.023-.074-7.8.602-3.376 1.801-9.302 3.824-10.876 1.352-1.125 4.204-1.347 5.028-.597.824.671.3 2.921 0 5.023-.375 3.75-1.653 13.125-3.528 15.148-.824.977-2.25 1.352-3 .977-.898-.45-1.046-2.55-1.5-4.648-.824-3.903-3.296-14.926-2.023-17.102.45-.824 1.648-1.125 2.25-.977.676.153 1.352.75 1.727 1.801 1.125 3-1.426 16.426-1.125 19.95.074 1.277.671 1.874.597 2.624-.074.528-.222 1.051-.597 1.426s-1.278.75-1.875.676c-.602-.074-1.278-.375-1.653-1.125-.972-1.95.977-8.773.528-12.977-.375-4.046-3.602-11.171-2.704-12 .375-.375 1.727 0 2.176.676.903 1.5-1.574 8.102-1.722 11.551-.153 2.773 1.046 6 .375 7.574-.454.977-1.426 1.727-2.176 1.875-.75.074-1.727-.222-2.176-.898-.977-1.5-.824-7.801-.074-9.602.375-.898.972-1.5 1.648-1.722.676-.153 1.5-.227 2.324.449 2.704 2.25 9.454 20.324 9.079 23.847-.079 1.125-.676 1.727-1.278 2.028-.597.375-1.574.597-2.398.074-2.102-1.2-5.926-9.148-7.2-12.977-.902-2.699-1.5-5.699-1.05-7.273.3-.824.898-1.5 1.574-1.8.676-.223 1.727-.15 2.398.3 1.204.824 1.954 3.148 2.926 5.477 1.426 3.75 3.75 12.523 3.977 15.148.074.898.148 1.273-.153 1.8-.375.524-1.273 1.274-1.949 1.348-.676.079-1.426-.222-2.25-.824-1.574-1.199-4.05-5.625-5.25-8.023-.824-1.653-1.5-2.778-1.8-4.5-.297-2.324-.297-6.676.601-8.102.45-.824 1.352-1.273 2.023-1.273.676-.074 1.727.375 2.176.898.45.528.676 1.727.528 2.403-.227.671-1.051 1.5-1.727 1.648-.676.227-1.8-.074-2.398-.45-.454-.3-.829-.823-.829-1.35-.074-.75.528-2.4 1.204-2.848.597-.375 1.796-.301 2.398-.079.523.227.898.528 1.125 1.125.523 1.278-.3 4.801-.074 6.454.148 1.125.222 1.574.75 2.699.972 2.176 5.25 6.972 5.625 9.074.148.977-.074 1.727-.528 2.25-.449.523-1.5.898-2.171.898-.602 0-1.204-.375-1.653-.824-.449-.449-.523-.972-.898-1.875-.75-2.176-1.574-7.574-2.625-10.875-.903-2.926-3-6.523-3.074-8.023 0-.602.074-.824.296-1.2.375-.527 1.278-1.351 1.954-1.425.824 0 2.097.597 2.625 1.426.75 1.046.074 3.148.671 5.097.903 2.926 4.5 7.95 5.477 10.5.45 1.278.824 3.074.75 3.074-.148.079-1.273-2.472-1.2-2.546.075-.079 1.126.75 1.274 1.347.227.75-.074 2.324-.597 2.852-.602.597-2.102.824-2.926.449-.977-.375-1.574-1.648-2.25-2.926-1.2-1.949-2.25-4.949-3.375-7.949-1.352-3.824-4.352-10.727-3.903-13.2.227-1.198 1.051-2.027 1.801-2.323.676-.227 1.801 0 2.324.449.528.449.829 1.199.977 2.176.3 1.796-.602 8.25-.75 8.25-.148 0-.375-2.778-.3-2.778.073 0 .75 1.574.527 2.25-.301.75-1.426 1.727-2.176 1.875-.75.074-1.653-.3-2.176-.898-.676-.75-.898-2.102-.977-3.676-.222-2.625.301-7.727 1.051-11.176.676-3.148 1.5-7.199 2.926-8.625.898-.824 2.25-1.125 3.074-.898.824.222 1.352 1.05 1.95 2.25 1.277 2.55 2.476 9 2.777 13.426.222 4.199 0 10.273-1.051 12.449-.45.898-1.273 1.426-1.875 1.574-.523.148-1.05-.074-1.5-.375-.523-.375-.977-.898-1.273-1.95-.903-3.448-.602-20.55 1.273-23.175.602-.898 1.648-1.05 2.25-.977.602.079 1.125.454 1.574 1.352 1.574 2.7 3.45 17.324 3.375 20.926 0 1.199.074 2.097-.523 2.472-.676.454-3.153.375-3.903-.671-1.796-2.551 1.579-20.926 3.454-21.75.75-.301 2.171.75 2.398 1.574.375 1.273-1.727 3.449-2.324 5.699-.824 2.926-.301 8.7-1.352 10.574-.449.824-1.199 1.426-1.875 1.5-.597.074-1.426-.148-1.8-.824-.899-1.426-.149-6.676.374-10.125.602-3.898 1.801-10.5 3.301-12.148.75-.676 1.727-.903 2.403-.75.597.222 1.273.898 1.5 1.949.75 2.699-1.278 15.824-2.704 16.347-.597.153-1.949-.972-2.097-1.949-.227-2.097 5.699-9 7.875-11.25 1.199-1.273 2.324-2.625 3.222-2.398.903.148 2.176 1.875 2.25 3.75.227 4.426-8.25 21.074-11.171 23.773-.977.903-1.954 1.2-2.551.977-.676-.227-1.352-1.278-1.352-2.477 0-2.773 5.477-10.875 7.727-14.625 1.574-2.472 2.773-4.875 4.199-5.926.824-.671 1.8-1.199 2.55-.972.75.148 1.575.898 1.802 2.023.597 3.227-5.477 14.778-6.977 19.875-.898 3.074-.602 6.602-1.8 7.574-.75.602-2.098.528-2.774.153-.602-.301-.977-.903-1.2-1.95-.601-2.851.899-16.874 2.774-17.851.75-.375 2.398.45 2.773 1.426.75 1.875-2.921 7.347-3.898 11.55-1.05 4.876-.676 13.274-1.8 15.899-.45.977-.9 1.574-1.575 1.8-.676.302-1.875.075-2.398-.226-.528-.3-.829-.75-1.125-1.5-.75-2.097-.602-8.324-1.278-12.074-.597-3.45-1.5-6.898-2.472-9.602-.75-2.097-2.329-3.824-2.625-5.324-.153-.898 0-1.426.296-2.398.375-1.426 1.579-4.5 2.625-5.176.676-.375 1.653-.45 2.102-.074.523.3.676 2.324.676 2.324"/>
        </clipPath>
        <clipPath id="s">
            <path d="M177.418 91H203v63h-25.582Zm0 0"/>
        </clipPath>
        <clipPath id="t">
            <path d="M183.148 151.5c.676-10.574 3.602-20.773 5.704-23.176.824-.972 1.875-1.5 2.546-1.347.75.148 1.579 1.125 1.653 2.398.3 3.824-8.852 21.3-11.625 23.7-.75.75-1.5.902-2.102.75-.597-.15-1.273-.825-1.426-1.723-.375-1.801 2.551-5.551 3.227-9.375 1.05-5.477-1.273-18.153.824-20.704.824-1.125 2.625-1.273 3.528-.972.75.222 1.199 1.125 1.574 1.875.375.824.449 1.875.523 3.074.153 1.727.301 4.05-.074 6.375-.45 3-2.25 6.824-2.773 9.898-.454 2.477 0 5.551-.528 6.903-.222.75-.523 1.125-.972 1.426-.375.296-1.051.523-1.579.375-.75-.153-1.574-.676-2.023-1.801-1.273-2.625-.45-12.602-.148-16.801.222-2.55.523-4.2 1.046-6.148.528-1.875 1.051-4.352 2.028-5.477.676-.75 1.722-1.352 2.55-1.273.75.074 1.649.972 2.024 1.875.523 1.125.148 2.921-.148 4.796-.454 2.852-2.477 6.829-3 10.426-.528 3.602.449 9.227-.153 11.102-.222.824-.523 1.199-.972 1.5-.454.3-1.204.449-1.727.375-.523-.074-1.2-.375-1.574-.824-.375-.375-.602-.75-.602-1.653-.074-2.926 5.028-13.722 6.227-20.324 1.125-6 .148-14.324 1.199-17.477.375-1.347.898-2.398 1.648-2.699.676-.3 1.954.074 2.625.676.977.898 1.278 3.074 1.801 5.324.903 3.602 1.125 9.153 2.176 14.477 1.273 6.75 6 19.199 5.25 22.722-.3 1.278-1.05 2.176-1.727 2.329-.75.148-1.722-.375-2.472-1.5-2.551-3.301-6.375-22.278-6.903-26.852-.148-1.5-.375-2.324.079-3.074.375-.676 1.5-1.352 2.25-1.352.671 0 1.347.45 1.796 1.125.829 1.125 1.051 3.153 1.5 5.551.829 4.5 2.176 16.2 1.875 19.5-.074 1.125-.148 1.8-.597 2.25-.528.523-1.653.898-2.477.676-1.273-.45-2.926-3.301-3.824-4.95-.676-1.351-.977-2.55-1.273-4.203-.454-2.171-.602-5.847-.676-7.722-.074-1.125-.301-1.875 0-2.551.222-.676.824-1.426 1.426-1.648.597-.227 1.648-.079 2.171.222.454.301.676.676.977 1.352.523 1.722-.148 6.597.3 9.75.45 2.926 2.325 6.75 2.25 8.472 0 .75-.226 1.204-.527 1.579-.375.449-.898.824-1.5.898-.671 0-1.875-.227-2.398-1.2-1.648-2.85 1.648-19.652 1.875-23.85.074-1.5.227-2.024.074-3.075-.148-1.2-1.426-2.773-1.273-3.824.148-.824.898-1.875 1.5-2.176.523-.227 1.199-.148 1.648.074.528.153.824.375 1.278 1.051 1.796 2.926 7.648 21.375 7.273 25.574-.148 1.426-.676 2.324-1.352 2.7-.449.374-1.125.3-1.648.152-.523-.153-.898-.45-1.352-.977-1.046-1.199-2.398-4.5-3.222-6.824-.903-2.324-1.426-4.125-1.95-7.273-.976-5.403-.902-16.875-1.8-22.727-.602-3.75-2.403-6.977-2.102-9 .153-1.2.676-2.25 1.426-2.625.676-.375 2.25 0 2.926.45.449.3.676.823.824 1.573.227 1.426-.148 3.528-.602 6.079-.824 4.5-2.921 14.25-4.648 18.296-.977 2.25-1.875 4.278-3 4.875-.75.375-1.8.227-2.398-.074-.528-.3-.829-.597-1.125-1.426-.829-2.398-.75-10.949.449-16.421 1.273-5.926 5.097-16.125 7.426-17.551.824-.528 1.875-.301 2.472.148.676.45 1.352 2.102 1.2 2.926-.149.75-1.047 1.574-1.723 1.8-.676.223-1.875 0-2.477-.448-.523-.375-1.125-1.5-.972-2.176.074-.903 1.273-2.176 2.023-2.477.75-.222 1.875.227 2.398.676.528.523.829 1.273.75 2.398-.074 2.926-4.949 10.5-6.148 15.903-1.125 5.25.45 13.875-.977 15.972-.523.829-1.421 1.051-2.097.977-.824-.074-1.95-.676-2.324-1.727-.75-2.324 3.222-9.074 4.273-13.796 1.2-4.727 1.2-12.301 2.477-14.625.523-.903 1.125-1.426 1.875-1.579.671-.148 1.648 0 2.324.676 1.426 1.426 2.023 6.45 2.699 10.653.824 5.699-.148 14.25 1.05 20.625 1.126 5.699 5.927 13.125 5.325 15.824-.227 1.05-1.2 1.722-1.875 1.949-.523.148-1.2 0-1.648-.3-.454-.223-.676-.524-1.125-1.274-1.579-3.074-6.75-21.903-6.977-25.352-.074-.824 0-1.125.227-1.574.222-.45.671-.977 1.199-1.125.676-.148 1.949.074 2.55.676.973.898 1.348 3 1.649 5.472.602 4.653-.148 15.75-.977 20.704-.449 2.921-.898 5.847-1.949 6.824-.597.523-1.5.597-2.176.3-.75-.226-1.5-1.05-2.023-2.25-1.2-2.402-1.8-9.078-2.102-12.453-.148-2.25-.449-4.5.153-5.773.375-.898 1.273-1.648 1.949-1.8.523-.15 1.2.073 1.648.374.454.301.676.676.977 1.352.523 1.648-.148 6.3.523 9.222.75 2.852 3.602 6.454 3.676 8.102 0 .676-.222 1.125-.523 1.5-.375.375-.977.676-1.426.75-.523.074-1.125-.074-1.574-.375-.375-.227-.676-.523-.903-1.273-.898-2.329-.597-11.926-1.273-16.5-.523-3.375-2.102-6.75-1.875-8.625.074-.903.375-1.5.898-1.954.528-.375 1.5-.523 2.102-.375.602.227.977.602 1.5 1.579 1.95 3.523 7.648 24.671 6.75 28.796-.3 1.352-1.05 2.176-1.727 2.329-.75.148-1.648-.375-2.472-1.5-3.153-4.352-10.2-36.602-9.227-41.778.301-1.347.903-1.949 1.574-2.25.602-.222 1.653-.074 2.176.301.602.375.824.898 1.051 1.95.602 3.073-.676 12.527-1.875 18.976-1.273 6.75-3.824 17.773-5.773 20.472-.602.903-1.204 1.204-1.875 1.278-.676.074-1.653-.074-2.176-.824-1.125-1.579-.75-7.125-.375-11.176.375-5.102 2.097-14.551 3.375-16.801.449-.75.824-.977 1.347-1.125.528-.227 1.204-.3 1.727 0 .676.3 1.426 1.273 1.574 2.324.301 1.801-2.097 4.727-2.625 8.028-.898 4.949.528 16.574-.375 19.199-.222.824-.523 1.125-.972 1.426-.375.296-1.051.523-1.579.375-.75-.153-1.648-.903-2.023-1.801-.602-1.426-.074-4.125.3-6.602.524-3.074 2.473-7.199 2.927-10.426.375-2.773-.977-6.597.074-7.796.676-.75 2.55-1.204 3.3-.528 1.876 1.653-.078 15.375-.828 20.028-.449 2.625-1.046 4.347-1.796 6-.602 1.273-1.352 2.546-2.176 3.222-.602.528-1.5.903-2.102.75-.597-.148-1.273-.75-1.426-1.722-.449-2.852 5.704-14.403 7.875-18.75 1.278-2.403 2.102-4.5 3.301-5.477.75-.676 1.727-1.125 2.324-.898.75.222 1.5 1.199 1.653 2.398.375 3-5.176 12.074-6 16.352-.45 2.546.523 5.171-.153 6.375-.449.671-1.273 1.199-1.875 1.199-.671-.074-1.875-1.801-1.875-1.801"/>
        </clipPath>
        <clipPath id="u">
            <path d="M126.766 152.379h50.671v58.617h-50.671Zm0 0"/>
        </clipPath>
        <clipPath id="v">
            <path d="M130.574 155.023c8.176.301 8.551.602 9.676 1.727 2.852 2.926 11.7 15.977 12.602 19.648.296 1.352.222 2.25-.227 2.852-.45.602-1.5.898-2.176.898-.597 0-.898-.222-1.574-.75-2.023-1.648-6.3-8.546-9.824-12.375-3.602-3.75-10.2-8.097-11.551-10.273-.523-.75-.602-1.2-.602-1.727.079-.597.375-1.273.829-1.722.375-.375 1.046-.676 1.648-.676.602-.074 1.05.074 1.727.523 2.097 1.352 6.148 7.426 9.824 11.25 4.125 4.352 10.199 8.926 14.023 13.204 3 3.449 5.852 7.421 7.426 10.199.898 1.648 1.875 3.148 1.8 4.347 0 .977-.527 2.176-1.198 2.551-.528.45-1.5.375-2.25.153-1.204-.454-2.403-1.653-3.676-3.153-2.102-2.398-4.125-7.125-6.602-10.574-2.472-3.523-7.125-7.727-8.25-10.352-.523-1.273-.75-2.546-.375-3.296.301-.602 1.278-1.125 1.95-1.125.675-.079 1.203.148 2.027.898 3.3 3 16.648 24.676 17.176 29.176.148 1.347-.227 2.176-.75 2.625-.602.449-1.727.676-2.778.222-2.55-1.199-7.8-9.375-10.273-13.125-1.727-2.546-2.778-4.347-3.824-6.824-1.204-2.699-3.454-7.199-2.704-8.699.375-.824 1.954-1.5 3-1.125 2.403 1.05 5.028 13.273 7.352 17.852 1.648 3.148 4.352 5.546 4.727 7.5.222 1.046 0 2.171-.528 2.699-.523.523-1.648.972-2.699.449-3.45-1.727-12.523-23.102-13.95-29.176-.6-2.55-.823-4.5-.152-5.699.528-.898 1.801-1.648 2.852-1.574 1.574.074 3.45 1.8 5.324 3.597 3.227 3.079 7.95 10.204 10.801 14.403 2.102 3 4.574 6.375 4.95 8.097.226.676.152 1.125-.075 1.579-.227.449-.602.972-1.125 1.125-.602.222-1.727.148-2.477-.454-1.796-1.421-3.222-8.472-4.722-11.398-.977-1.875-1.5-2.926-2.852-4.574-2.023-2.477-6.222-6.301-8.847-8.324-1.875-1.426-4.352-2.028-5.25-3.153-.528-.676-.75-1.5-.676-2.097.074-.602.449-1.204.898-1.5.45-.375.903-.602 1.653-.528 1.574.074 4.875 1.875 7.199 3 2.097 1.051 4.125 1.95 6 3.375a24.878 24.878 0 0 1 5.55 5.028c2.098 2.546 4.649 7.125 5.547 9.671.528 1.5.977 2.778.602 3.829-.3.898-1.273 1.875-2.25 2.097-1.352.301-3.375-.597-5.398-1.426-2.852-1.199-7.051-3.597-10.051-5.847-2.778-2.176-6.824-5.324-7.278-7.278-.222-1.046.301-2.25.903-2.699.676-.449 2.023-.597 2.847-.074 1.5 1.05 1.653 6.375 3.079 9.3 1.347 2.927 3.671 6.677 5.25 8.177.824.824 2.324 1.199 2.25 1.5 0 .296-2.704.449-2.704.375 0-.079 1.426-1.051 2.403-.903 2.023.375 5.847 4.352 8.25 6.903 2.324 2.546 5.699 6.222 6 8.472.222 1.278-.375 3.227-.977 3.301-1.648.148-9.148-15.148-11.023-19.875-.977-2.477-1.352-4.05-1.574-5.773-.227-1.426-.528-3.079-.079-3.977.375-.676 1.204-1.273 1.875-1.426.528-.074 1.051.074 1.653.375 1.05.602 2.398 2.25 3.676 3.75 1.648 2.102 3.597 4.727 5.324 7.727 2.097 3.523 5.55 10.199 6.222 12.449.227.75.375 1.125.227 1.648-.227.602-.898 1.426-1.5 1.653-.45.222-1.2.222-1.648 0-.528-.153-.75-.375-1.278-1.051-1.875-2.477-8.625-15.676-9.898-19.352-.528-1.421-.824-2.023-.676-3 .227-1.046 1.125-2.546 2.023-2.847.903-.375 2.25 0 3.153.676 1.273.824 2.023 2.699 3.148 4.875 2.028 3.824 5.852 12.671 7.125 16.796.75 2.329 1.051 3.75 1.2 5.551.078 1.653.374 3.824-.297 4.875-.454.824-1.801 1.352-2.551 1.352-.602 0-1.2-.375-1.574-.824-.375-.454-.227-1.352-.676-1.727-.602-.375-1.875.3-3.074 0-2.25-.676-6.301-3.3-8.704-5.102-1.949-1.5-4.347-3.296-4.796-4.796-.227-.903.222-2.176.824-2.704.597-.523 1.574-.597 2.847-.222 3.375.972 14.926 12.75 17.329 12.824.597 0 .824-.898 1.125-.75.449.148.898 2.102.597 2.852-.222.671-1.125 1.421-1.875 1.574-.676.074-1.8-.153-2.25-.676-.597-.676-.75-2.7-.3-3.375.3-.676 1.425-1.125 2.175-1.05.676 0 1.653.6 2.028 1.198.449.602.523 1.727.222 2.403-.3.597-1.199 1.347-1.875 1.5-.75.074-1.875-.227-2.324-.75-.523-.528-.824-1.653-.676-2.324.153-.676.824-1.579 1.5-1.875.676-.227 1.801-.153 2.403.222.597.375 1.125 2.102 1.199 2.102l-.824-1.801s.898 1.574.75 2.25c-.079.75-.676 1.648-1.426 1.95-1.2.448-3.375-.075-5.551-1.052-4.125-1.796-14.926-9.375-15.898-12.296-.301-1.051.222-2.176.824-2.704.597-.523 1.8-.597 2.847-.222 1.727.523 3.829 3.75 6.227 5.324 2.7 1.8 7.2 3.227 9.227 4.8 1.199.9 2.398 1.95 2.546 2.7.153.45 0 .824-.296 1.2-.375.527-1.727 1.425-2.551 1.35-.75-.073-1.727-.976-2.176-1.948-.676-1.426.3-3.75-.3-6.454-1.126-5.097-9.9-18.148-8.927-21.222.301-1.125 1.653-1.95 2.625-1.653 2.625.75 9.602 17.25 9.977 20.625.074 1.051-.074 1.653-.523 2.176-.454.45-1.426.824-2.102.75-.602-.074-1.125-.449-1.8-1.199-1.65-1.95-3.677-8.324-6.075-12.227-2.477-4.125-8.324-9.597-8.7-11.773-.073-.75.223-1.2.524-1.648.375-.375.977-.829 1.5-.903.75 0 1.875.375 2.551 1.2 1.125 1.425.45 4.8 1.574 7.874 1.801 4.801 8.324 13.579 9.903 17.625.75 1.875 1.648 3.375 1.125 4.5-.454 1.125-2.778 2.25-3.977 2.102-.977 0-1.574-.898-2.625-1.875-2.102-2.102-5.25-7.95-8.25-11.023-2.7-2.704-6.227-3.676-8.773-6.602-3-3.375-6.602-9.523-7.579-13.125-.597-2.25-.296-5.852-.074-5.852.074 0 .903 3.227.75 3.301-.148 0-.898-.898-1.05-1.426-.149-.523-.075-1.273.152-1.796.222-.454.75-.977 1.273-1.204.528-.222 1.051-.296 1.801 0 1.5.602 3.75 4.051 6.375 6.079 3.227 2.398 10.8 4.949 11.7 7.046.374.977-.376 2.704-.677 2.778-.375 0-.898-3-1.722-4.727-1.125-2.176-2.852-5.324-4.653-7.273-1.5-1.727-3.074-2.778-5.171-4.051-2.852-1.727-8.778-3.523-10.352-4.8-.676-.524-.977-.825-1.125-1.348-.148-.528-.074-1.204.074-1.727.227-.45.75-.977 1.278-1.2.597-.226 1.273-.226 2.25.075 2.324.898 7.949 5.7 10.875 8.625 2.324 2.324 4.046 4.5 5.699 7.125 1.648 2.625 3.074 6 4.125 8.625.75 2.102 1.949 4.426 1.722 5.7-.148.75-.671 1.425-1.273 1.652-.602.222-1.648.148-2.477-.454-1.574-1.046-2.773-4.875-4.796-7.722-2.704-3.903-9.375-10.574-10.579-13.426-.523-1.05-.597-2.477-.449-2.55.602-.15 10.2 20.027 11.926 25.35.75 2.25 1.426 3.9 1.05 5.024-.226.75-.976 1.352-1.573 1.574-.602.153-1.426.079-2.176-.449-1.5-.972-3.153-4.199-4.801-7.347-2.477-4.875-7.273-15.977-7.648-19.875-.079-1.579.148-2.704.671-3.375.528-.602 1.5-.903 2.176-.829.75.079 1.5.528 2.102 1.278 1.05 1.5 1.347 5.699 2.324 8.25.898 2.25 1.727 3.824 3.227 6.3 2.472 3.899 10.347 11.399 10.875 14.325.222 1.199-.301 2.097-.75 2.625-.454.375-1.125.523-1.653.523-.523 0-.898-.074-1.574-.676-2.926-2.625-16.2-25.273-17.324-29.171-.301-.903-.301-1.204-.074-1.727.148-.523.597-1.05 1.046-1.352.454-.222 1.125-.375 1.653-.296.523.148.824.296 1.5.898 2.398 2.25 9.972 14.852 13.426 19.125 1.875 2.398 4.273 3.898 4.796 5.25.301.676.227 1.2.079 1.727-.153.523-.602 1.125-1.125 1.347-.454.301-1.204.45-1.727.301-.523-.074-.898-.375-1.5-.898-1.273-1.426-2.324-5.625-4.8-8.926-3.825-5.102-12.75-12.227-17.774-17.551-3.903-4.125-9.301-8.7-10.051-11.398-.3-1.204.074-2.329.602-2.926.375-.45 1.046-.676 1.648-.676.602-.074.977.074 1.727.523 2.324 1.352 8.472 7.352 11.921 10.954 3 3.222 6.079 7.273 7.875 9.671.977 1.278 1.954 2.25 2.176 3.227.153.602.153 1.273-.148 1.727-.301.597-1.2 1.273-1.875 1.421-.676.079-1.352-.074-2.176-.75-2.7-2.25-7.648-17.25-11.926-20.023-2.398-1.648-6.449-.074-7.426-1.05-.523-.524-.597-1.65-.375-2.177.227-.523 1.426-1.125 1.426-1.125"/>
        </clipPath>
        <clipPath id="w">
            <path d="M190 118.61h38.777v91.956H190Zm0 0"/>
        </clipPath>
        <clipPath id="x">
            <path d="M192 202.05c-.977-23.476-.074-24.675.676-25.124.523-.301 1.199-.301 1.722-.074.528.148 1.125.523 1.5 1.5 1.426 3.449 2.329 24.671-.222 26.847-.977.903-3.227.528-4.051-.523-1.574-1.95.375-10.5 1.2-15.153.75-4.199 1.726-9.75 3.226-11.546.75-.903 1.875-1.352 2.625-1.204.824.153 1.722.903 2.023 2.028.75 2.55-2.55 9.523-3.222 14.472-.676 5.028.671 13.204-.829 15.454-.671 1.046-1.875 1.5-2.625 1.421-.824-.074-1.722-.898-2.25-2.023-1.046-2.25-.972-8.102-.222-12.75 1.05-5.926 5.625-16.875 7.199-19.574.45-.824.676-1.125 1.125-1.426.523-.227 1.273-.375 1.8-.227.524.079 1.2.528 1.5.977.376.45.524.824.524 1.727-.148 2.921-4.347 16.5-6.75 18.449-.898.75-2.023.75-2.699.449-.676-.375-1.2-1.426-1.352-2.477-.222-1.648.829-4.648 1.579-6.824.75-2.324 1.796-4.347 3.148-6.676 1.574-2.921 4.273-8.324 6.074-9.523.75-.523 1.5-.676 2.176-.45.676.302 1.648 1.2 1.648 2.098.153 1.801-3.597 4.875-5.097 7.954-1.727 3.597-2.551 11.023-4.426 12.671-.824.75-1.95.829-2.7.528-.675-.227-1.425-1.2-1.5-2.324-.073-2.176 3.075-7.278 5.177-10.426 2.023-3.074 5.324-8.25 7.125-8.324 1.125-.079 2.625 1.347 2.773 2.625.375 2.546-4.8 10.875-6.676 12.375-.824.597-1.574.671-2.25.597-.523-.074-1.125-.449-1.426-.972-.523-.903-.296-3.227-.148-4.579.148-1.125.45-1.722.977-3 .898-2.324 2.546-6 4.875-9.597 3.523-5.403 12.296-17.477 15.449-19.125.972-.528 1.722-.528 2.25-.227.597.301 1.199 1.278 1.05 2.102-.453 1.648-5.624 3.75-8.25 6.222-2.777 2.625-5.624 6.079-7.953 9.153-2.097 2.773-3.898 5.55-5.324 8.324-1.347 2.625-2.023 6.523-3.074 7.95-.523.675-.898 1.198-1.5 1.277-.676.074-1.8-.454-2.176-.977-.375-.45-.375-.977-.222-1.875.75-3.602 9.074-18.074 12.523-23.477 1.95-3.074 3.523-6.074 5.102-6.898.824-.45 1.796-.45 2.398-.074.523.375 1.05 1.273.898 2.176-.375 2.097-6.222 6.375-8.546 9.375-1.875 2.398-3.528 4.875-4.727 6.972-.898 1.574-1.574 2.7-2.102 4.426-.671 2.102-.671 5.773-1.421 7.273-.454.829-.903 1.426-1.5 1.653-.602.222-1.653.074-2.102-.301-.602-.45-.977-1.273-.977-2.477.079-2.921 3.903-10.796 6.153-15.222 1.8-3.602 3.898-8.551 5.847-9.602.903-.523 2.102-.449 2.704-.074.597.3 1.125 1.05 1.125 1.95.074 2.25-4.801 7.8-6.153 11.777-1.273 3.75-.676 9.824-2.097 11.324-.75.75-2.028.898-2.778.597-.676-.296-1.347-1.125-1.574-2.324-.45-3.074 3.074-11.625 5.176-17.324 2.176-5.852 5.773-15.148 7.648-17.176.602-.676.977-.824 1.5-.898.602-.074 1.278 0 1.727.375.597.449 1.199 1.5 1.125 2.55-.074 1.95-2.926 4.649-4.352 7.95-2.25 5.097-4.5 17.773-6.972 19.875-.903.824-2.102.824-2.852.597-.676-.296-1.125-1.046-1.426-1.875-.523-1.347-.222-3.75 0-5.921.375-2.704 1.125-6.227 2.25-9.079 1.125-2.699 2.778-6.671 4.278-7.648.898-.523 2.171-.45 2.847-.074.602.3 1.051 1.347 1.125 1.949.074.602-.523 1.727-.597 1.727-.079-.079.222-2.704.296-2.704 0 0 .153 1.727-.074 2.926-.523 2.403-3 6.602-3.972 9.903-.903 3.074-.454 7.648-1.727 9.074-.676.824-2.023 1.05-2.773.898-.602-.074-1.125-.597-1.426-1.125-.301-.449-.676-1.426-.375-1.722.523-.528 4.8.148 5.097.824.153.375-.449 1.199-.972 1.574-.528.375-1.653.602-2.324.45-.528-.15-1.125-.598-1.426-1.126-.301-.449-.45-.898-.375-1.722.449-2.477 5.699-8.926 7.5-13.5 1.722-4.278 1.199-11.403 3.375-13.125 1.347-1.051 4.8-.829 5.324-.079.45.602-.45 2.102-1.2 3.602-1.5 2.926-6.675 8.324-8.55 11.926-1.426 2.699-2.023 5.023-2.773 7.574-.676 2.55-.602 6.523-1.5 7.875-.375.676-.977.977-1.5 1.125-.602.148-1.352.148-1.875-.227-.676-.449-1.426-1.273-1.426-2.625-.153-4.125 10.125-19.421 12.597-25.648 1.352-3.375 1.204-5.324 2.477-8.023 1.5-3.079 4.273-8.028 6.227-9.375 1.046-.602 2.171-.829 2.921-.528.676.227 1.204.977 1.5 1.875.528 1.5.153 3.824-.148 6.75-.676 5.625-2.852 21.824-5.102 24.45-.671.75-1.5.902-2.25.828-.671-.079-1.5-.602-1.949-1.426-.75-1.5-.148-5.176.074-8.324.227-3.977.602-10.278 1.727-13.426.602-1.95 1.426-3.824 2.477-4.5.824-.45 2.171-.45 2.847-.074.602.375 1.051 1.199 1.125 2.023.227 1.426-.597 3.375-1.347 5.625-1.204 3.75-3.301 12.977-5.704 14.324-1.273.75-3.449.153-4.199-.597-.75-.676-.676-1.875-.676-3.375 0-2.926 1.352-9.977 2.25-12.977.528-1.727 1.875-3.676 1.727-3.824-.148-.074-1.273.972-1.273.972s1.046-1.273 1.574-1.5c.523-.222 1.199-.148 1.722.079.528.375 1.204 1.046 1.352 1.796.148.977-.375 2.25-.977 3.903-1.125 3-4.722 10.5-6.296 12.222-.528.602-.903.829-1.426.977-.602.074-1.352.074-1.801-.3-.602-.45-1.273-1.575-1.2-2.552.075-1.421 1.723-3.148 3.223-5.097 2.176-2.926 6.602-8.25 9.153-10.352 1.347-1.199 2.625-2.398 3.676-2.324.824.148 1.648 1.2 2.023 2.25.602 1.574.148 4.2-.227 6.824-.523 3.602-2.023 11.028-3.597 12.75-.676.75-1.5.977-2.25.824-.75-.148-1.727-.824-2.176-1.875-.898-2.171.074-8.25.977-11.625.671-2.847 2.398-4.949 3.222-7.5.824-2.472 1.051-5.398 1.801-7.574.676-1.722 1.8-2.926 2.398-4.574.602-1.648.227-4.125 1.125-5.176.602-.75 1.954-1.273 2.778-1.125.75.153 1.722 1.278 2.023 2.176.301.898.074 1.875-.222 3.074-.454 1.727-1.426 3.977-2.704 6.45-1.796 3.601-5.773 11.402-7.648 13.05-.676.528-1.125.676-1.727.676-.671-.074-1.722-.375-2.171-1.125-.676-1.125-.227-4.05.074-6 .3-2.023 1.05-4.05 1.875-5.926.75-1.8 1.722-4.05 2.773-5.097.602-.602 1.278-1.051 2.028-1.125.75 0 1.875.523 2.472 1.125.602.523.903.972 1.125 2.324.75 4.722-.676 28.574-4.347 35.25-2.028 3.597-5.778 3.972-7.875 6.3-1.954 2.25-2.778 6.45-4.426 7.422-.977.602-2.477.528-3.153.079-.671-.301-1.199-1.426-1.125-2.176.079-.824 1.125-2.25 1.954-2.477.671-.3 1.796.074 2.398.528.523.523.977 1.574.824 2.324-.074.676-.676 1.722-1.347 2.023-.829.301-2.551 0-3.153-.597-.523-.454-.75-1.352-.676-2.329.301-1.875 2.403-5.398 4.278-7.648 2.023-2.324 6.449-3.898 7.5-6.074.824-1.653-.074-2.778.074-5.102.45-5.097 3-20.324 3.898-24.3.301-1.348.301-2.473.829-2.7.449-.148 1.648.375 1.949 1.2.75 1.953-2.324 11.101-3.676 12.902-.45.75-.898.972-1.5 1.125-.523.148-1.273 0-1.8-.227-.524-.3-1.052-.824-1.274-1.347-.153-.528-.227-.977 0-1.875.676-2.477 6.222-9.829 7.875-13.727 1.125-2.7 1.199-5.773 2.097-7.05.454-.598.903-.9 1.5-1.126.528-.148 1.352-.074 1.875.227.602.3 1.278 1.125 1.426 1.949.227.898-.074 1.648-.449 3.148-.977 3.903-6.227 14.551-7.727 20.625-1.046 4.5-.375 10.278-1.347 12.153-.375.75-.824.972-1.352 1.199-.597.227-1.347.3-1.875 0-.676-.3-1.426-1.125-1.648-2.324-.602-3 2.097-15.75 4.05-16.727.75-.375 2.473.45 2.7 1.278.523 2.171-9.528 13.796-12.45 15.375-1.124.597-2.175.597-2.851.222-.676-.375-1.273-1.5-1.2-2.55.075-1.723 2.774-4.422 3.973-6.899 1.278-2.55 1.954-6.824 3.301-8.25.75-.75 1.801-1.125 2.551-1.05.523.073 1.05.448 1.426.902.3.449.375.824.449 1.648.148 2.625-.977 15.375-2.852 16.426-.824.523-2.546-.074-3-1.125-1.199-2.324 4.278-15.824 6.079-17.926.523-.676.972-.75 1.5-.898.523-.079 1.273 0 1.722.375.602.523 1.051 1.648 1.051 2.625.074 1.421-1.352 2.699-1.875 4.949-1.05 4.199-.227 16.199-1.727 18.824-.523.898-1.273 1.273-1.949 1.352-.75.074-1.8-.227-2.25-.903-.824-1.125-.597-3.898-.375-6.523.375-4.2 2.926-11.25 3.676-15.824.523-3.375-.074-7.278.75-9 .45-.903 1.05-1.5 1.648-1.727.602-.227 1.352-.227 1.875.074.602.301 1.352 1.2 1.5 1.875.153.676-.074 1.2-.449 2.102-.824 1.949-4.5 5.472-5.926 8.324-1.199 2.477-1.046 4.426-2.324 7.648-2.398 6.079-9.074 22.426-12.222 25.352-.977.977-2.028 1.2-2.778 1.125-.597-.074-1.199-.602-1.574-1.05-.3-.45-.45-.973-.45-1.802-.073-1.574.598-4.648 1.274-7.273.824-3.074 1.95-6.676 3.824-10.05 2.102-3.825 6.301-11.024 8.778-11.325 1.426-.227 3.3 1.352 3.824 2.926.824 2.472-1.648 7.8-3.227 11.773-1.796 4.352-5.097 11.551-7.273 13.352-.977.824-2.023 1.05-2.773.898-.602-.074-1.125-.597-1.426-1.125-.301-.449-.676-1.426-.375-1.722.523-.528 4.8.148 5.097.824.153.375-.449 1.273-.972 1.574-.602.375-2.176.602-2.852.227-.676-.375-1.125-1.051-1.273-2.028-.375-2.472 1.574-9.972 2.926-13.199.898-2.176 2.546-3.45 3.222-4.95.45-1.198 0-2.698.528-3.3.523-.45 1.648-.602 2.324-.3.676.226 1.574 1.198 1.648 2.175.153 1.95-3.3 5.625-4.273 8.852-.977 3.671-.528 10.199-1.352 12.222-.3.75-.523 1.125-1.05 1.426-.598.3-1.723.45-2.399.148-.676-.375-1.352-1.273-1.5-2.472-.375-3.301 3.898-13.278 6.148-18.45 1.727-3.902 3.75-8.777 5.625-9.976.903-.523 2.176-.523 2.778-.074.676.375 1.125 1.347 1.125 2.55 0 3.223-5.324 11.098-7.426 16.797-2.176 5.704-3.227 15.375-5.398 17.403-.903.75-2.028.898-2.778.597-.676-.222-1.273-1.199-1.574-2.171-.45-1.875.375-5.778.977-8.25.523-2.329 1.125-4.125 2.25-6.375 1.273-2.778 3.75-7.727 5.546-8.778.903-.523 2.102-.523 2.704-.074.671.375 1.199 1.426 1.046 2.55-.148 2.098-3.671 5.473-5.398 8.927-2.102 4.273-4.273 12.972-6 15.074-.676.824-1.2 1.199-1.8 1.273-.677 0-1.575-.3-2.024-.824-.45-.523-.45-1.352-.45-2.324.075-1.801.899-4.95 1.876-7.352.972-2.55 2.546-5.176 4.125-7.648 1.648-2.551 3.597-5.102 5.625-7.426 1.949-2.324 4.648-5.625 6.375-6.375.898-.375 1.796-.45 2.398-.074.523.375.977 1.273.898 2.176-.222 2.097-4.421 5.773-6.523 9.523-2.773 4.727-5.7 12.977-8.102 16.8-1.421 2.177-2.699 4.5-3.898 4.802-.75.148-1.875-.375-2.176-.977-.449-.602-.222-1.574 0-2.7.602-2.402 3-6.902 4.95-10.198 1.953-3.227 4.277-6.301 6.828-9.375 2.546-3.153 5.773-7.204 8.625-9.227 2.023-1.5 4.648-2.773 5.921-2.773.602-.079.977.148 1.352.523.375.375.75.898.602 1.8-.528 3.075-11.778 14.024-15 19.348-2.028 3.375-3.227 6.153-4.125 8.852-.75 2.25-.375 5.023-1.278 6.148-.676.75-1.875 1.125-2.625 1.051-.523-.074-1.125-.523-1.426-.972-.296-.454-.523-.903-.449-1.653.227-1.8 3.227-6.449 4.875-8.926 1.352-2.023 2.778-4.5 4.2-4.949.902-.375 2.402 0 2.851.602.45.75 0 2.472-.602 3.824-1.046 2.102-4.5 4.352-6.296 7.05-2.028 2.927-3.301 8.626-5.102 9.973-.824.676-1.95.829-2.7.528-.675-.227-1.35-1.125-1.5-2.324-.3-2.551 2.473-9.676 4.5-13.352 1.575-3 4.126-6.75 5.848-7.426.977-.375 2.102 0 2.704.45.449.453.75 1.124.671 2.101-.222 2.324-4.875 7.426-6.671 11.324-1.727 3.75-2.176 10.051-3.903 11.477-.824.676-2.023.75-2.699.449-.676-.375-1.273-1.2-1.352-2.477-.296-3.074 4.426-15 5.852-17.472.45-.824.676-1.125 1.125-1.426.523-.227 1.273-.375 1.8-.227.524.079 1.2.528 1.5.977.376.45.524.824.524 1.727-.148 2.921-6.074 12.898-7.05 18.523-.75 4.352.828 9.75.3 12.148-.222 1.051-.523 1.727-1.125 2.176-.597.375-1.8.528-2.472.301-.676-.227-1.204-.824-1.579-1.875-.972-2.55-.074-10.426.602-15.523.75-5.028 1.95-12.528 3.676-14.625.824-.977 1.875-1.352 2.625-1.204.824.153 1.722.977 2.023 2.028.602 2.176-2.176 7.347-2.926 11.472-.824 4.727-.824 12.301-1.574 15.153-.222 1.199-.3 2.023-.972 2.398-.829.45-3.528.074-4.278-.676-.523-.597-.3-1.347-.375-2.699-.222-4.273-.898-24.074 1.2-26.847.675-.903 1.874-.977 2.624-.75.676.148 1.426 1.199 1.653 2.097.222 1.2-1.051 2.551-1.2 4.653-.453 4.125 2.25 16.046.973 18.75-.449.972-1.426 1.648-2.023 1.574-.676-.074-1.801-1.875-1.801-1.875"/>
        </clipPath>
        <clipPath id="y">
            <path d="M242 128h6v6h-6Zm0 0"/>
        </clipPath>
        <clipPath id="z">
            <path d="M112.5 111.285v79.5c0 14.914 12.09 27 27 27h96c14.91 0 27-12.086 27-27v-79.5c0-14.91-12.09-27-27-27h-96c-14.91 0-27 12.09-27 27Zm0 0"/>
        </clipPath>
        <clipPath id="A">
            <path d="M126 128h6v6h-6Zm0 0"/>
        </clipPath>
        <clipPath id="B">
            <path d="M112.5 111.285v79.5c0 14.914 12.09 27 27 27h96c14.91 0 27-12.086 27-27v-79.5c0-14.91-12.09-27-27-27h-96c-14.91 0-27 12.09-27 27Zm0 0"/>
        </clipPath>
        <clipPath id="C">
            <path d="M159 94h5v6h-5Zm0 0"/>
        </clipPath>
        <clipPath id="D">
            <path d="M112.5 111.285v79.5c0 14.914 12.09 27 27 27h96c14.91 0 27-12.086 27-27v-79.5c0-14.91-12.09-27-27-27h-96c-14.91 0-27 12.09-27 27Zm0 0"/>
        </clipPath>
        <clipPath id="E">
            <path d="M210 94h6v6h-6Zm0 0"/>
        </clipPath>
        <clipPath id="F">
            <path d="M112.5 111.285v79.5c0 14.914 12.09 27 27 27h96c14.91 0 27-12.086 27-27v-79.5c0-14.91-12.09-27-27-27h-96c-14.91 0-27 12.09-27 27Zm0 0"/>
        </clipPath>
        <clipPath id="G">
            <path d="M112.5 84.285h150v133.5h-150Zm0 0"/>
        </clipPath>
        <clipPath id="H">
            <path d="M112.5 111.285v79.5c0 14.914 12.09 27 27 27h96c14.91 0 27-12.086 27-27v-79.5c0-14.91-12.09-27-27-27h-96c-14.91 0-27 12.09-27 27Zm0 0"/>
        </clipPath>
        <clipPath id="I">
            <path d="M112.5 202H142v5h-29.5Zm0 0"/>
        </clipPath>
        <clipPath id="J">
            <path d="M112.5 111.285v79.5c0 14.914 12.09 27 27 27h96c14.91 0 27-12.086 27-27v-79.5c0-14.91-12.09-27-27-27h-96c-14.91 0-27 12.09-27 27Zm0 0"/>
        </clipPath>
        <clipPath id="K">
            <path d="M112.5 211H159v6h-46.5Zm0 0"/>
        </clipPath>
        <clipPath id="L">
            <path d="M112.5 111.285v79.5c0 14.914 12.09 27 27 27h96c14.91 0 27-12.086 27-27v-79.5c0-14.91-12.09-27-27-27h-96c-14.91 0-27 12.09-27 27Zm0 0"/>
        </clipPath>
        <clipPath id="M">
            <path d="M146 202h6v5h-6Zm0 0"/>
        </clipPath>
        <clipPath id="N">
            <path d="M112.5 111.285v79.5c0 14.914 12.09 27 27 27h96c14.91 0 27-12.086 27-27v-79.5c0-14.91-12.09-27-27-27h-96c-14.91 0-27 12.09-27 27Zm0 0"/>
        </clipPath>
        <clipPath id="O">
            <path d="M233 202h29.5v5H233Zm0 0"/>
        </clipPath>
        <clipPath id="P">
            <path d="M112.5 111.285v79.5c0 14.914 12.09 27 27 27h96c14.91 0 27-12.086 27-27v-79.5c0-14.91-12.09-27-27-27h-96c-14.91 0-27 12.09-27 27Zm0 0"/>
        </clipPath>
        <clipPath id="Q">
            <path d="M216 211h46.5v6H216Zm0 0"/>
        </clipPath>
        <clipPath id="R">
            <path d="M112.5 111.285v79.5c0 14.914 12.09 27 27 27h96c14.91 0 27-12.086 27-27v-79.5c0-14.91-12.09-27-27-27h-96c-14.91 0-27 12.09-27 27Zm0 0"/>
        </clipPath>
        <clipPath id="S">
            <path d="M223 202h6v5h-6Zm0 0"/>
        </clipPath>
        <clipPath id="T">
            <path d="M112.5 111.285v79.5c0 14.914 12.09 27 27 27h96c14.91 0 27-12.086 27-27v-79.5c0-14.91-12.09-27-27-27h-96c-14.91 0-27 12.09-27 27Zm0 0"/>
        </clipPath>
    </defs>
    <g clip-path="url(#a)">
        <g clip-path="url(#b)">
            <path fill="#ffa629" d="M198.375 145.875h56.023v63.3h-56.023Zm0 0"/>
        </g>
    </g>
    <g clip-path="url(#c)">
        <g clip-path="url(#d)">
            <path fill="#ffa629" d="M221.926 167.324H231v8.926h-9.074Zm0 0"/>
        </g>
    </g>
    <g clip-path="url(#e)">
        <g clip-path="url(#f)">
            <path fill="#ffa629" d="M202.273 166.125h31.278v43.273h-31.278Zm0 0"/>
        </g>
    </g>
    <g clip-path="url(#g)">
        <g clip-path="url(#h)">
            <path fill="#ffa69" d="M197.852 201.3h10.273v9.9h-10.273Zm0 0"/>
        </g>
    </g>
    <g clip-path="url(#i)">
        <g clip-path="url(#j)">
            <path fill="#ffa629" d="M193.95 149.7h56.175v64.948h-56.176Zm0 0"/>
        </g>
    </g>
    <g clip-path="url(#k)">
        <g clip-path="url(#l)">
            <path fill="#ffeb5b" d="M143.176 115.426h45.222V211.5h-45.222Zm0 0"/>
        </g>
    </g>
    <g clip-path="url(#m)">
        <g clip-path="url(#n)">
            <path fill="#00c4cc" d="M180.45 202.05h12.448v16.575H180.45Zm0 0"/>
        </g>
    </g>
    <g clip-path="url(#o)">
        <g clip-path="url(#p)">
            <path fill="#00c4cc" d="M182.852 205.727h12.375v11.699h-12.375Zm0 0"/>
        </g>
    </g>
    <g clip-path="url(#q)">
        <g clip-path="url(#r)">
            <path fill="#00c4cc" d="M173.773 134.176h32.028v54.898h-32.028Zm0 0"/>
        </g>
    </g>
    <g clip-path="url(#s)">
        <g clip-path="url(#t)">
            <path fill="#00c4cc" d="M174.898 88.2h30.676v68.624h-30.676Zm0 0"/>
        </g>
    </g>
    <g clip-path="url(#u)">
        <g clip-path="url(#v)">
            <path fill="#16a637" d="M123.898 149.625h56.403v64.125h-56.403Zm0 0"/>
        </g>
    </g>
    <g clip-path="url(#w)">
        <g clip-path="url(#x)">
            <path fill="#75d481" d="M187.574 115.95h43.95v97.277h-43.95Zm0 0"/>
        </g>
    </g>
    <g clip-path="url(#y)">
        <g clip-path="url(#z)">
            <path fill="#32620e" d="M247.055 131.027c0 .313-.059.61-.176.899a2.346 2.346 0 0 1-3.059 1.266c-.289-.122-.539-.29-.758-.508a2.25 2.25 0 0 1-.507-.758 2.292 2.292 0 0 1-.18-.899c0-.308.059-.605.18-.894a2.25 2.25 0 0 1 .507-.758 2.344 2.344 0 0 1 1.652-.688c.313 0 .61.063.895.18.29.117.543.29.762.508.219.219.387.473.508.758.117.289.176.586.176.894Zm0 0"/>
        </g>
    </g>
    <g clip-path="url(#A)">
        <g clip-path="url(#B)">
            <path fill="#32620e" d="M131.223 131.027c0 .313-.063.61-.18.899a2.371 2.371 0 0 1-1.266 1.266 2.36 2.36 0 0 1-1.793 0 2.371 2.371 0 0 1-.757-.508 2.309 2.309 0 0 1-.508-.758 2.364 2.364 0 0 1-.18-.899c0-.308.063-.605.18-.894.117-.285.289-.54.508-.758.218-.219.472-.39.757-.508.29-.117.586-.18.895-.18.312 0 .61.063.898.18.286.117.54.29.758.508.219.219.39.473.508.758.117.289.18.586.18.894Zm0 0"/>
        </g>
    </g>
    <g clip-path="url(#C)">
        <g clip-path="url(#D)">
            <path fill="#32620e" d="M163.98 97.215a2.34 2.34 0 0 1-.683 1.656 2.298 2.298 0 0 1-.758.504c-.289.121-.586.18-.898.18-.309 0-.61-.059-.895-.18a2.325 2.325 0 0 1-1.266-1.266 2.273 2.273 0 0 1-.18-.894c0-.313.06-.61.18-.895.118-.289.29-.543.508-.761.219-.22.473-.387.758-.508a2.36 2.36 0 0 1 1.793 0 2.346 2.346 0 0 1 1.441 2.164Zm0 0"/>
        </g>
    </g>
    <g clip-path="url(#E)">
        <g clip-path="url(#F)">
            <path fill="#32620e" d="M215.465 97.215c0 .308-.059.61-.18.894-.117.29-.285.54-.508.762a2.298 2.298 0 0 1-.757.504c-.286.121-.586.18-.895.18-.313 0-.61-.059-.898-.18a2.298 2.298 0 0 1-.758-.504 2.34 2.34 0 0 1-.684-1.656 2.326 2.326 0 0 1 .684-1.656c.219-.22.472-.387.758-.508a2.36 2.36 0 0 1 1.793 0c.285.12.539.289.757.508.223.218.391.472.508.761.121.285.18.582.18.895Zm0 0"/>
        </g>
    </g>
    <g clip-path="url(#G)">
        <g clip-path="url(#H)">
            <path fill="#32620e" d="M259.457 145.188s-.117 0 0 0c-15.562 3.39-27.262 8.89-36.152 15.093.465-2.691.816-5.5 1.402-8.191l.234-1.172c2.106-11.23 3.512-19.305 7.371-30.3.82-2.227 5.266-9.833 6.786-11 1.054-.821 1.289-2.223.468-3.278-.82-1.05-2.222-1.285-3.277-.469-13.57 10.297-23.867 24.223-31.355 37.328-2.457-15.68-6.786-34.754-12.989-57.219-.234-.933-1.168-1.636-2.222-1.636-1.051 0-1.989.586-2.223 1.636-.703 2.11-11.234 34.051-14.39 63.301-7.723-14.86-18.958-31.472-34.633-43.41-1.055-.816-2.457-.582-3.278.469-.82 1.055-.586 2.457.469 3.277 1.52 1.168 6.082 8.774 6.785 11 3.86 10.996 5.383 19.07 7.371 30.301l.235 1.172c.468 2.691.937 5.5 1.402 8.191-8.89-6.32-20.59-11.703-36.035-15.094-1.29-.234-2.457.583-2.692 1.754-.234 1.29.586 2.457 1.754 2.809.117 0 11 2.926 26.68 31.238.934 2.227 12.633 28.082 30.3 33.23 4.45 1.755 10.65 3.512 17.434 3.512 6.086 0 12.754-1.406 19.192-5.382 14.976-7.84 24.804-29.368 25.625-31.36 15.558-28.195 26.441-31.238 26.676-31.238a2.242 2.242 0 0 0 1.753-2.809c-.234-1.285-1.402-2.105-2.691-1.754Zm-69.969-50.196c6.32 23.516 9.946 41.418 11.703 54.992-9.011 17.551-12.87 32.293-12.988 32.528-.351 1.402-.703 2.691-.937 3.976-.235-1.285-.586-2.574-.938-3.976 0-.235-2.922-11.117-9.476-25.39 1.523-22.231 8.894-49.259 12.636-62.13Zm-16.144 115.016c-4.215-1.64-6.906-3.278-7.024-3.278-.113-.117-.347-.117-.465-.234-12.167-8.422-20.476-27.262-20.593-27.496 0-.117-.117-.117-.117-.234-7.02-12.754-13.223-20.707-18.137-25.621 19.773 6.667 33.816 17.78 41.887 33.226 5.382 10.297 6.554 19.774 6.671 23.988-.703 0-1.406-.234-2.222-.351Zm6.902-1.29c-.351-5.148-1.871-14.273-7.02-24.218-3.277-6.316-8.425-13.574-16.382-20.242a254.513 254.513 0 0 0-2.106-13.106l-.234-1.168c-1.988-11-3.508-19.191-7.254-29.953 24.688 26.207 34.516 63.297 34.633 63.766 1.054 4.215 1.758 7.957 1.87 11.234.118 3.39 0 8.192-1.987 11.817a5.892 5.892 0 0 1-1.52 1.87Zm2.809 3.747c1.168-.938 2.222-2.106 2.925-3.395a22.263 22.263 0 0 0 1.403-3.507c.351 1.167.82 2.457 1.402 3.507.82 1.524 1.992 2.692 3.278 3.746-3.16.235-6.2.118-9.008-.351Zm9.945-5.617c-1.988-3.625-2.223-8.426-1.988-11.817.117-3.277.816-7.02 1.87-11.234.118-.469 9.946-37.559 34.634-63.766-3.746 10.88-5.266 18.953-7.254 29.953l-.235 1.168c-.82 4.332-1.52 8.778-2.105 13.106-7.957 6.668-13.106 13.926-16.383 20.242-5.266 10.063-6.668 19.188-7.02 24.219a5.892 5.892 0 0 1-1.519-1.871Zm36.621-28.082c0 .117-.117.117-.117.234-.117.234-8.774 19.89-21.527 27.965-.352.117-.586.234-.82.351-.587.352-1.052.704-1.637 1.051-1.989 1.055-4.215 1.758-6.438 1.992.234-4.214 1.29-13.691 6.672-23.988 8.07-15.445 22.113-26.559 41.887-33.226-4.797 5.03-11 12.984-18.02 25.62Zm0 0"/>
        </g>
    </g>
    <g clip-path="url(#I)">
        <g clip-path="url(#J)">
            <path fill="#32620e" d="M114.84 206.965h24.57c1.29 0 2.34-1.055 2.34-2.34 0-1.29-1.05-2.34-2.34-2.34h-24.57a2.346 2.346 0 0 0-2.34 2.34 2.349 2.349 0 0 0 2.34 2.34Zm0 0"/>
        </g>
    </g>
    <g clip-path="url(#K)">
        <g clip-path="url(#L)">
            <path fill="#32620e" d="M114.84 216.324h40.953c1.285 0 2.34-1.05 2.34-2.34a2.349 2.349 0 0 0-2.34-2.34H114.84a2.349 2.349 0 0 0-2.34 2.34c0 1.29 1.055 2.34 2.34 2.34Zm0 0"/>
        </g>
    </g>
    <g clip-path="url(#M)">
        <g clip-path="url(#N)">
            <path fill="#32620e" d="M151.113 204.625a2.344 2.344 0 0 1-.687 1.656 2.298 2.298 0 0 1-.758.504c-.29.121-.586.18-.898.18-.31 0-.606-.059-.895-.18a2.325 2.325 0 0 1-1.266-1.266 2.344 2.344 0 0 1-.18-.894 2.344 2.344 0 0 1 .688-1.656c.219-.219.473-.387.758-.508a2.36 2.36 0 0 1 1.793 0c.285.121.539.289.758.508a2.344 2.344 0 0 1 .688 1.656Zm0 0"/>
        </g>
    </g>
    <g clip-path="url(#O)">
        <g clip-path="url(#P)">
            <path fill="#32620e" d="M259.926 202.285h-24.57c-1.29 0-2.34 1.05-2.34 2.34 0 1.285 1.05 2.34 2.34 2.34h24.57c1.289 0 2.34-1.055 2.34-2.34 0-1.29-1.051-2.34-2.34-2.34Zm0 0"/>
        </g>
    </g>
    <g clip-path="url(#Q)">
        <g clip-path="url(#R)">
            <path fill="#32620e" d="M259.926 211.645h-40.953a2.349 2.349 0 0 0-2.34 2.34c0 1.288 1.054 2.34 2.34 2.34h40.953c1.289 0 2.34-1.052 2.34-2.34 0-1.286-1.051-2.34-2.34-2.34Zm0 0"/>
        </g>
    </g>
    <g clip-path="url(#S)">
        <g clip-path="url(#T)">
            <path fill="#32620e" d="M228.336 204.625a2.344 2.344 0 0 1-.688 1.656 2.298 2.298 0 0 1-.757.504c-.29.121-.586.18-.895.18-.312 0-.61-.059-.898-.18a2.298 2.298 0 0 1-.758-.504 2.34 2.34 0 0 1-.684-1.656 2.34 2.34 0 0 1 1.442-2.164 2.36 2.36 0 0 1 1.793 0c.285.121.539.289.757.508a2.344 2.344 0 0 1 .688 1.656Zm0 0"/>
        </g>
    </g>
</svg>
